<svg width="74" height="46" viewBox="0 0 74 46" fill="none" xmlns="http://www.w3.org/2000/svg">
<path d="M46 32.7059V32.7059C41.8651 26.5035 32.8397 26.253 28.3671 32.2165L28 32.7059" stroke="#333333" stroke-width="3" stroke-linecap="round"/>
<circle cx="37" cy="23" r="21.5" stroke="#333333" stroke-width="3"/>
<rect x="30" y="15" width="3" height="5" rx="1.5" fill="#333333"/>
<path d="M41 16.5C41 15.6716 41.6716 15 42.5 15C43.3284 15 44 15.6716 44 16.5V18.5C44 19.3284 43.3284 20 42.5 20C41.6716 20 41 19.3284 41 18.5V16.5Z" fill="#333333"/>
<path d="M41 16.5C41 15.6716 41.6716 15 42.5 15C43.3284 15 44 15.6716 44 16.5V18.5C44 19.3284 43.3284 20 42.5 20C41.6716 20 41 19.3284 41 18.5V16.5Z" fill="#333333"/>
</svg>
