<svg width="120" height="120" viewBox="0 0 120 120" fill="none" xmlns="http://www.w3.org/2000/svg">
<circle cx="60" cy="60" r="60" fill="#F1F1F1"/>
<path fill-rule="evenodd" clip-rule="evenodd" d="M54.9805 39.6085C57.1339 35.6116 62.8661 35.6116 65.0195 39.6085L84.0687 74.9861C84.5362 75.8545 84.7705 76.8294 84.7486 77.8154C84.7267 78.8013 84.4493 79.7648 83.9437 80.6115C83.438 81.4582 82.7213 82.1593 81.8636 82.6462C81.006 83.133 80.0367 83.3891 79.0504 83.3892H40.9496C39.9633 83.3891 38.994 83.133 38.1364 82.6462C37.2787 82.1593 36.562 81.4582 36.0563 80.6115C35.5507 79.7648 35.2733 78.8013 35.2514 77.8154C35.2295 76.8294 35.4637 75.8546 35.9313 74.9862L54.9805 39.6085ZM58.7198 41.6231C59.2693 40.604 60.7305 40.6036 61.2799 41.6226C61.2799 41.6225 61.28 41.6228 61.2799 41.6226L80.3288 76.9998C80.448 77.2211 80.5077 77.4696 80.5021 77.721C80.4966 77.9723 80.4259 78.2179 80.297 78.4337C80.1681 78.6495 79.9854 78.8282 79.7668 78.9523C79.5482 79.0764 79.3013 79.1416 79.05 79.1417C79.0502 79.1417 79.0499 79.1417 79.05 79.1417H40.9503M58.7198 41.6231L39.6712 76.9998C39.6712 76.9998 39.6711 76.9998 39.6712 76.9998C39.552 77.2211 39.4923 77.4696 39.4979 77.721C39.5034 77.9723 39.5741 78.2179 39.703 78.4337C39.8319 78.6495 40.0146 78.8282 40.2332 78.9523C40.4518 79.0764 40.6991 79.1416 40.9503 79.1417M59.9726 50.4366C60.3485 50.4329 60.7213 50.5059 61.0681 50.6512C61.4149 50.7965 61.7284 51.011 61.9895 51.2815C62.2505 51.5521 62.4537 51.873 62.5865 52.2247C62.7194 52.5764 62.7791 52.9516 62.762 53.3272L62.1214 66.9617C62.0682 68.0946 61.1342 68.9857 60.0001 68.9857C58.8659 68.9858 57.9319 68.0947 57.8786 66.9618L57.237 53.3251C57.2367 53.3178 57.2363 53.3104 57.2361 53.3031C57.2225 52.9339 57.2831 52.5658 57.4142 52.2204C57.5453 51.8751 57.7442 51.5595 57.9993 51.2923C58.2544 51.0251 58.5604 50.8117 58.8993 50.6647C59.2382 50.5178 59.6032 50.4402 59.9726 50.4366Z" fill="#333333"/>
<path d="M60 76.1201C59.4923 76.1201 58.996 75.9696 58.5739 75.6875C58.1517 75.4054 57.8227 75.0045 57.6284 74.5355C57.4341 74.0664 57.3833 73.5503 57.4824 73.0524C57.5814 72.5544 57.8259 72.0971 58.1849 71.7381C58.5439 71.3791 59.0013 71.1346 59.4992 71.0356C59.9971 70.9365 60.5133 70.9873 60.9823 71.1816C61.4513 71.3759 61.8522 71.7049 62.1343 72.1271C62.4164 72.5492 62.5669 73.0455 62.5669 73.5532C62.5669 74.234 62.2965 74.8869 61.8151 75.3683C61.3337 75.8497 60.6808 76.1201 60 76.1201Z" fill="#333333"/>
</svg>
