<svg width="16" height="16" viewBox="0 0 16 16" fill="none" xmlns="http://www.w3.org/2000/svg">
<path d="M7.05006 2.15424C7.45755 1.3979 8.54219 1.39804 8.94948 2.15424L14.6946 12.8232C14.783 12.9875 14.8277 13.1718 14.8235 13.3583C14.8193 13.5449 14.7669 13.7274 14.6712 13.8876C14.5755 14.0478 14.4398 14.1803 14.2776 14.2724C14.1153 14.3645 13.931 14.4131 13.7444 14.413H2.25416C2.06767 14.4128 1.88404 14.3636 1.72194 14.2714C1.56001 14.1792 1.42481 14.0467 1.32936 13.8867C1.23391 13.7266 1.18117 13.5446 1.17702 13.3583C1.17293 13.1719 1.21757 12.9874 1.30592 12.8232L7.05006 2.15424ZM7.86842 11.4257C7.73781 11.4518 7.61789 11.5161 7.52369 11.6103C7.42941 11.7046 7.36514 11.8252 7.33912 11.956C7.31325 12.0865 7.32638 12.2217 7.37721 12.3447C7.42817 12.4677 7.5146 12.5733 7.62526 12.6474C7.73612 12.7215 7.86692 12.7617 8.00026 12.7617C8.08874 12.7617 8.17632 12.7437 8.25807 12.7099C8.33986 12.676 8.41422 12.626 8.47682 12.5634C8.53937 12.5008 8.58944 12.4264 8.6233 12.3447C8.65707 12.263 8.67409 12.1752 8.67409 12.0869C8.67404 11.9537 8.63475 11.8236 8.5608 11.7128C8.48673 11.602 8.38126 11.5148 8.25807 11.4638C8.13497 11.4129 7.99909 11.3997 7.86842 11.4257ZM7.99147 5.21771C7.89333 5.21866 7.7963 5.23912 7.70631 5.27826C7.61624 5.31751 7.53465 5.37493 7.46705 5.44623C7.39943 5.5176 7.34713 5.60216 7.31276 5.69428C7.27841 5.78634 7.26254 5.88419 7.26686 5.98236L7.46022 10.0937C7.46033 10.2366 7.51738 10.3735 7.61842 10.4745C7.71949 10.5756 7.85638 10.6327 7.99928 10.6328C8.14232 10.6328 8.27997 10.5757 8.38112 10.4745C8.48209 10.3735 8.5392 10.2365 8.53932 10.0937L8.73268 5.98041L8.73073 5.98334C8.7351 5.88444 8.71967 5.78498 8.68483 5.69232C8.64998 5.59976 8.59697 5.51474 8.52858 5.4433C8.46015 5.37185 8.37738 5.31514 8.28639 5.27631C8.19541 5.23752 8.0972 5.21766 7.9983 5.21771H7.99147Z" fill="#EC040B"/>
</svg>
