<svg width="20" height="20" viewBox="0 0 20 20" fill="none" xmlns="http://www.w3.org/2000/svg">
<g clip-path="url(#clip0_8_12766)">
<path d="M4.25601 10.0019C4.25601 9.02837 4.45072 8.10889 4.80769 7.26514C5.16467 6.42139 5.67308 5.66418 6.3113 5.02596C6.94952 4.38774 7.70673 3.87933 8.55048 3.52236C9.39423 3.16538 10.3137 2.97067 11.2873 2.97067C12.2608 2.97067 13.1803 3.16538 14.024 3.52236C14.8678 3.87933 15.625 4.38774 16.2632 5.02596C16.9014 5.66418 17.4099 6.42139 17.7668 7.26514C18.1238 8.10889 18.3185 9.02837 18.3185 10.0019C18.3185 10.9755 18.1238 11.895 17.7668 12.7387C17.4099 13.5825 16.9014 14.3397 16.2632 14.9779C15.625 15.6161 14.8678 16.1245 14.024 16.4815C13.1803 16.8385 12.2608 17.0332 11.2873 17.0332C10.3137 17.0332 9.39423 16.8385 8.55048 16.4815C7.70673 16.1245 6.94952 15.6161 6.3113 14.9779" stroke="#0070C4" stroke-width="1.25" stroke-miterlimit="10" stroke-linecap="round"/>
<path d="M5.03486 11.3865C4.66707 11.7435 4.08293 11.7435 3.72596 11.3865L1.19471 8.86612C0.935096 8.6065 0.935096 8.17381 1.19471 7.91419C1.45433 7.65458 1.88702 7.65458 2.14663 7.91419L4.375 10.1426L6.60337 7.91419C6.86298 7.65458 7.29567 7.65458 7.55529 7.91419C7.8149 8.17381 7.8149 8.6065 7.55529 8.86612L5.02404 11.3865H5.03486Z" fill="#0070C4"/>
<path d="M13.0447 11.9054C12.9647 11.9054 12.8747 11.8854 12.7947 11.8554L11.1847 11.1654C10.8647 11.0254 10.6547 10.7054 10.6547 10.3554V6.91543C10.6547 6.57543 10.9347 6.29543 11.2847 6.29543C11.6347 6.29543 11.9047 6.57543 11.9047 6.91543V10.1054L13.2947 10.6954C13.6147 10.8354 13.7547 11.1954 13.6247 11.5154C13.5247 11.7554 13.2947 11.8954 13.0447 11.8954V11.9054Z" fill="#0070C4"/>
</g>
<defs>
<clipPath id="clip0_8_12766">
<rect width="18" height="15.4147" fill="white" transform="translate(1 2.3)"/>
</clipPath>
</defs>
</svg>
