<svg width="16" height="16" viewBox="0 0 16 16" fill="none" xmlns="http://www.w3.org/2000/svg">
<path fill-rule="evenodd" clip-rule="evenodd" d="M0.6875 8C0.6875 3.9618 3.9618 0.6875 8 0.6875C12.0382 0.6875 15.3125 3.9618 15.3125 8C15.3125 12.0382 12.0382 15.3125 8 15.3125C3.9618 15.3125 0.6875 12.0382 0.6875 8ZM8 1.8575C4.60797 1.8575 1.8575 4.60797 1.8575 8C1.8575 11.392 4.60797 14.1425 8 14.1425C11.392 14.1425 14.1425 11.392 14.1425 8C14.1425 4.60797 11.392 1.8575 8 1.8575ZM6.39125 6.97625C6.39125 6.65316 6.65316 6.39125 6.97625 6.39125H8.14625C8.46934 6.39125 8.73125 6.65316 8.73125 6.97625V10.7787H9.755C10.0781 10.7787 10.34 11.0407 10.34 11.3637C10.34 11.6868 10.0781 11.9487 9.755 11.9487H6.5375C6.21441 11.9487 5.9525 11.6868 5.9525 11.3637C5.9525 11.0407 6.21441 10.7787 6.5375 10.7787H7.56125V7.56125H6.97625C6.65316 7.56125 6.39125 7.29934 6.39125 6.97625Z" fill="#0070C4"/>
<path d="M8 3.68562C7.81198 3.68562 7.62819 3.74138 7.47186 3.84583C7.31553 3.95029 7.19369 4.09876 7.12174 4.27246C7.04979 4.44617 7.03096 4.6373 7.06764 4.82171C7.10432 5.00611 7.19486 5.1755 7.32781 5.30844C7.46075 5.44139 7.63014 5.53193 7.81454 5.56861C7.99895 5.60529 8.19008 5.58646 8.36379 5.51451C8.53749 5.44256 8.68596 5.32072 8.79042 5.16439C8.89487 5.00806 8.95062 4.82427 8.95062 4.63625C8.95062 4.38413 8.85047 4.14233 8.67219 3.96406C8.49392 3.78578 8.25212 3.68562 8 3.68562Z" fill="#0070C4"/>
</svg>
