<svg width="11" height="12" viewBox="0 0 11 12" fill="none" xmlns="http://www.w3.org/2000/svg">
<path d="M4.69032 3.11806C4.72187 3.13113 4.74244 3.16191 4.74244 3.19606L4.74244 11.2396C4.74244 11.6126 5.04483 11.915 5.41785 11.915C5.79088 11.915 6.09327 11.6126 6.09327 11.2396L6.09327 3.19606C6.09327 3.16191 6.11384 3.13113 6.14539 3.11806C6.17694 3.10499 6.21325 3.11222 6.2374 3.13636L9.49933 6.3983C9.7631 6.66206 10.1908 6.66206 10.4545 6.3983C10.7183 6.13453 10.7183 5.70688 10.4545 5.44311L5.89545 0.884043C5.63168 0.620275 5.20403 0.620275 4.94026 0.884043L0.381191 5.44311C0.117424 5.70688 0.117424 6.13453 0.381191 6.3983C0.644958 6.66206 1.07261 6.66206 1.33638 6.3983L4.59831 3.13636C4.62246 3.11222 4.65877 3.10499 4.69032 3.11806Z" fill="#00B82B"/>
</svg>
