<svg xmlns="http://www.w3.org/2000/svg" width="56.1" height="61.658" viewBox="0 0 56.1 61.658">
  <g id="Group_7798" data-name="Group 7798" transform="translate(-179.405 -148.489)">
    <g id="Group_7795" data-name="Group 7795">
      <path id="Path_8482" data-name="Path 8482" d="M214.037,156.3a6.563,6.563,0,1,1-6.563-6.563A6.562,6.562,0,0,1,214.037,156.3Z" fill="none" stroke="#394553" stroke-miterlimit="10" stroke-width="2.5"/>
      <path id="Path_8483" data-name="Path 8483" d="M212.766,210.145l-.021-16.758a5.158,5.158,0,0,0,5.134-5.161V174.053a5.17,5.17,0,0,0-5.161-5.151H202.181a5.182,5.182,0,0,0-5.15,5.174v14.173a5.185,5.185,0,0,0,5.179,5.149l.02,16.748" fill="none" stroke="#394553" stroke-miterlimit="10" stroke-width="2.5"/>
    </g>
    <g id="Group_7796" data-name="Group 7796">
      <path id="Path_8484" data-name="Path 8484" d="M233.041,163.005a6.563,6.563,0,1,1-6.563-6.563A6.563,6.563,0,0,1,233.041,163.005Z" fill="none" stroke="#394553" stroke-miterlimit="10" stroke-width="2.5"/>
      <path id="Path_8485" data-name="Path 8485" d="M229.126,210.145l-.021-13.588a5.17,5.17,0,0,0,5.15-5.161l-.017-10.5a5.17,5.17,0,0,0-5.161-5.151h-6.261" fill="none" stroke="#394553" stroke-miterlimit="10" stroke-width="2.5"/>
    </g>
    <g id="Group_7797" data-name="Group 7797">
      <path id="Path_8486" data-name="Path 8486" d="M181.869,163.005a6.563,6.563,0,1,0,6.564-6.563A6.563,6.563,0,0,0,181.869,163.005Z" fill="none" stroke="#394553" stroke-miterlimit="10" stroke-width="2.5"/>
      <path id="Path_8487" data-name="Path 8487" d="M185.784,210.145l.021-13.588a5.17,5.17,0,0,1-5.15-5.161l.016-10.5a5.17,5.17,0,0,1,5.161-5.151h6.261" fill="none" stroke="#394553" stroke-miterlimit="10" stroke-width="2.5"/>
    </g>
  </g>
</svg>
