<svg width="11" height="12" viewBox="0 0 11 12" fill="none" xmlns="http://www.w3.org/2000/svg">
<path d="M6.14562 9.4835C6.11407 9.47043 6.0935 9.43965 6.0935 9.4055L6.0935 1.36194C6.0935 0.988918 5.79111 0.686523 5.41808 0.686523C5.04506 0.686523 4.74266 0.988918 4.74266 1.36194L4.74266 9.4055C4.74266 9.43965 4.7221 9.47043 4.69055 9.4835C4.659 9.49657 4.62268 9.48935 4.59854 9.4652L1.3366 6.20326C1.07284 5.9395 0.645186 5.9395 0.381419 6.20326C0.117652 6.46703 0.117652 6.89468 0.381419 7.15845L4.94049 11.7175C5.20426 11.9813 5.63191 11.9813 5.89568 11.7175L10.4547 7.15845C10.7185 6.89468 10.7185 6.46703 10.4547 6.20326C10.191 5.9395 9.76333 5.9395 9.49956 6.20326L6.23763 9.4652C6.21348 9.48935 6.17717 9.49657 6.14562 9.4835Z" fill="#EC040B"/>
</svg>
