<svg width="22" height="23" viewBox="0 0 22 23" fill="none" xmlns="http://www.w3.org/2000/svg" stroke='currentColor'>
<path d="M5.2 21.9001C5.3 21.9001 5.4 22.0001 5.6 22.0001C5.7326 22.0142 5.86659 21.994 5.98916 21.9415C6.11172 21.8889 6.21876 21.8058 6.3 21.7001L10.8 16.7001H18.8C19.5376 16.6843 20.2407 16.3842 20.7624 15.8625C21.2841 15.3408 21.5842 14.6377 21.6 13.9001V2.9001C21.6 2.15749 21.305 1.4453 20.7799 0.9202C20.2548 0.395099 19.5426 0.100098 18.8 0.100098H3C2.26236 0.115912 1.55932 0.415989 1.03761 0.937702C0.515892 1.45942 0.215811 2.16246 0.199997 2.9001V13.9001C0.199997 14.6427 0.495002 15.3549 1.0201 15.88C1.54521 16.4051 2.25739 16.7001 3 16.7001H4.5V21.0001C4.50533 21.2052 4.57616 21.4032 4.70211 21.5651C4.82806 21.7271 5.00253 21.8445 5.2 21.9001V21.9001ZM3 14.7001C2.79245 14.6861 2.59702 14.5973 2.44993 14.4502C2.30283 14.3031 2.21404 14.1077 2.2 13.9001V2.9001C2.21404 2.69255 2.30283 2.49712 2.44993 2.35003C2.59702 2.20293 2.79245 2.11414 3 2.1001H18.8C19.0076 2.11414 19.203 2.20293 19.3501 2.35003C19.4972 2.49712 19.586 2.69255 19.6 2.9001V13.9001C19.586 14.1077 19.4972 14.3031 19.3501 14.4502C19.203 14.5973 19.0076 14.6861 18.8 14.7001H10.4C10.2674 14.686 10.1334 14.7062 10.0108 14.7587C9.88828 14.8113 9.78124 14.8944 9.7 15.0001L6.6 18.4001V15.7001C6.60802 15.5667 6.58765 15.4331 6.54023 15.3081C6.49281 15.1832 6.41943 15.0697 6.32492 14.9752C6.23041 14.8807 6.11693 14.8073 5.99197 14.7599C5.86701 14.7125 5.73341 14.6921 5.6 14.7001H3Z" fill="#666666" stroke='currentColor'/>
</svg>
