<svg width="20" height="20" viewBox="0 0 20 20" fill="none" xmlns="http://www.w3.org/2000/svg">
<path d="M10 0.25C4.62391 0.25 0.25 4.62391 0.25 10C0.25 15.3761 4.62391 19.75 10 19.75C15.3761 19.75 19.75 15.3761 19.75 10C19.75 4.62391 15.3761 0.25 10 0.25ZM13.5302 12.4698C13.6027 12.5388 13.6608 12.6216 13.7008 12.7133C13.7409 12.805 13.7622 12.9039 13.7635 13.004C13.7648 13.1041 13.746 13.2034 13.7083 13.2961C13.6706 13.3889 13.6147 13.4731 13.5439 13.5439C13.4731 13.6147 13.3889 13.6706 13.2961 13.7083C13.2034 13.746 13.1041 13.7648 13.004 13.7635C12.9039 13.7622 12.805 13.7409 12.7133 13.7008C12.6216 13.6608 12.5388 13.6027 12.4698 13.5302L10 11.0608L7.53016 13.5302C7.38836 13.6649 7.19955 13.7389 7.00398 13.7364C6.8084 13.7339 6.62155 13.6551 6.48325 13.5168C6.34495 13.3785 6.26614 13.1916 6.26364 12.996C6.26114 12.8005 6.33513 12.6116 6.46984 12.4698L8.93922 10L6.46984 7.53016C6.33513 7.38836 6.26114 7.19955 6.26364 7.00398C6.26614 6.8084 6.34495 6.62155 6.48325 6.48325C6.62155 6.34495 6.8084 6.26614 7.00398 6.26364C7.19955 6.26114 7.38836 6.33513 7.53016 6.46984L10 8.93922L12.4698 6.46984C12.6116 6.33513 12.8005 6.26114 12.996 6.26364C13.1916 6.26614 13.3785 6.34495 13.5168 6.48325C13.6551 6.62155 13.7339 6.8084 13.7364 7.00398C13.7389 7.19955 13.6649 7.38836 13.5302 7.53016L11.0608 10L13.5302 12.4698Z" fill="#666666"/>
</svg>
