<?xml version="1.0" encoding="utf-8"?>
<!-- Generator: Adobe Illustrator 24.1.1, SVG Export Plug-In . SVG Version: 6.00 Build 0)  -->
<svg version="1.1" id="Layer_1" xmlns="http://www.w3.org/2000/svg" xmlns:xlink="http://www.w3.org/1999/xlink" x="0px" y="0px"
	 viewBox="0 0 512 512" style="enable-background:new 0 0 512 512;" xml:space="preserve">
<g fill="#0070C4">
	<path d="M199.1,142.2v28.4h227.6c15.7,0,28.4,12.8,28.4,28.4v227.6c0,15.7-12.8,28.4-28.4,28.4H199.1c-15.7,0-28.4-12.8-28.4-28.4
		l0-227.6c0-15.7,12.8-28.4,28.4-28.4V142.2v-28.4c-47.1,0-85.3,38.2-85.3,85.3v227.6c0,47.1,38.2,85.3,85.3,85.3l227.6,0
		c47.1,0,85.3-38.2,85.3-85.3l0-227.6c0-47.1-38.2-85.3-85.3-85.3H199.1V142.2z"/>
	<path d="M398.2,142.2V85.3C398.2,38.2,360,0,312.9,0H85.3C38.2,0,0,38.2,0,85.3v227.6c0,47.1,38.2,85.3,85.3,85.3l56.9,0
		c15.7,0,28.4-12.7,28.4-28.4c0-15.7-12.7-28.4-28.4-28.4H85.3c-15.7,0-28.4-12.8-28.4-28.4l0-227.6c0-15.7,12.8-28.4,28.4-28.4
		l227.6,0c15.7,0,28.4,12.7,28.4,28.4v56.9c0,15.7,12.7,28.4,28.4,28.4S398.2,157.9,398.2,142.2z"/>
</g>
</svg>
