<svg width="18" height="20" viewBox="0 0 18 20" fill="none" xmlns="http://www.w3.org/2000/svg">
  <path d="M9 0.75C4.451 0.75 0.75 4.451 0.75 9C0.75 13.549 4.451 17.25 9 17.25C13.549 17.25 17.25 13.549 17.25 9C17.25 4.451 13.549 0.75 9 0.75ZM13.2936 6.23506L7.9628 12.5812C7.90433 12.6509 7.83156 12.7071 7.74944 12.7462C7.66733 12.7853 7.57777 12.8062 7.48684 12.8077H7.47613C7.38718 12.8077 7.29923 12.7889 7.21798 12.7527C7.13674 12.7165 7.06402 12.6636 7.00453 12.5975L4.71992 10.059C4.66189 9.99748 4.61676 9.92496 4.58716 9.84573C4.55757 9.76649 4.54411 9.68215 4.54758 9.59764C4.55105 9.51313 4.57138 9.43017 4.60736 9.35363C4.64335 9.27709 4.69428 9.20852 4.75715 9.15194C4.82002 9.09536 4.89356 9.05192 4.97346 9.02418C5.05336 8.99643 5.13799 8.98493 5.2224 8.99036C5.3068 8.99579 5.38927 9.01803 5.46495 9.05579C5.54064 9.09355 5.60801 9.14605 5.66311 9.21022L7.45947 11.2061L12.3218 5.41879C12.4309 5.29269 12.5852 5.21457 12.7514 5.20133C12.9176 5.18809 13.0823 5.24078 13.21 5.34801C13.3376 5.45525 13.418 5.60841 13.4336 5.7744C13.4493 5.94039 13.3989 6.10586 13.2936 6.23506Z" fill="#00853F" />
</svg>