<svg class="svg-icon" style="width: 1em; height: 1em;vertical-align: middle;fill: currentColor;overflow: hidden;" viewBox="0 0 1024 1024" version="1.1" xmlns="http://www.w3.org/2000/svg"><path d="M663.808 212.16c1.408 0.384 2.752 0.768 4.16 1.152 20.096 5.632 29.504 28.608 19.2 46.528-19.136 33.408-38.464 66.688-57.728 99.968-77.824 134.848-155.648 269.632-233.472 404.544-3.136 5.44-6.848 10.176-12.224 13.44-3.456 2.112-7.296 3.392-11.2 4.352-0.512 0.128-1.024 0.384-1.472 0.64-2.752 0-5.504 0-8.256 0-1.024-0.384-2.048-0.768-3.072-1.024-15.424-3.776-25.6-17.152-24.896-32.896 0.192-4.992 1.6-9.728 4.096-14.144 57.536-99.712 115.136-199.36 172.672-299.072 39.616-68.672 79.296-137.28 118.848-205.952 3.84-6.656 8.832-11.904 15.936-14.848 2.368-0.96 4.864-1.472 7.36-2.176 0.448-0.128 0.832-0.32 1.216-0.512C657.92 212.16 660.864 212.16 663.808 212.16z"  /><path d="M64.064 496.64c0.384-0.832 0.896-1.6 1.088-2.432 1.408-6.272 4.48-11.584 8.96-16.064 55.616-55.616 111.232-111.296 166.912-166.848 9.152-9.152 20.416-11.776 32.64-7.808 12.352 3.968 19.712 12.8 21.76 25.6 1.664 10.56-1.408 19.968-9.088 27.648C247.744 395.328 209.088 433.92 170.432 472.576 159.68 483.328 148.928 494.08 138.176 504.896 137.664 505.408 137.152 505.92 136.576 506.56 137.28 507.392 137.92 508.096 138.624 508.8c49.216 49.216 98.432 98.432 147.648 147.648 17.6 17.6 9.984 47.296-14.016 53.76-11.776 3.2-22.4 0.448-31.168-8.192-10.432-10.304-20.736-20.736-31.104-31.104C165.12 625.984 120.192 581.056 75.2 536.128 70.08 531.072 66.432 525.44 65.024 518.336c-0.128-0.64-0.64-1.28-0.96-1.856C64.064 509.824 64.064 503.232 64.064 496.64z"  /><path d="M958.72 518.08c-0.32 1.088-0.64 2.24-0.96 3.328-1.536 5.12-4.224 9.472-8 13.312-18.816 18.816-37.568 37.696-56.32 56.512-6.336 6.4-12.672 12.736-19.008 19.136-22.272 22.336-44.544 44.672-66.816 67.008-8.192 8.256-16.256 16.64-24.64 24.768-9.344 9.024-20.544 11.584-32.768 7.552-12.352-4.096-19.648-13.056-21.568-26.048-1.536-10.624 1.792-19.712 9.344-27.264 24.32-24.448 48.64-48.832 72.96-73.28 20.928-20.992 41.792-41.984 62.72-62.976 4.416-4.416 8.896-8.704 13.568-13.312-0.832-0.896-1.408-1.536-2.048-2.176-10.88-10.944-21.76-21.824-32.576-32.768-28.096-28.16-56.192-56.384-84.288-84.544-10.304-10.304-20.736-20.544-30.848-31.04-8.64-8.96-11.392-19.776-7.744-31.744 3.648-11.904 11.904-19.456 24.064-22.08 11.392-2.432 21.44 0.768 29.696 9.024 22.4 22.464 44.8 44.992 67.2 67.456 24.896 25.024 49.856 50.048 74.752 75.008 8.192 8.256 16.448 16.448 24.64 24.768 4.224 4.352 7.232 9.408 8.128 15.552 0.064 0.256 0.32 0.448 0.448 0.64C958.72 502.656 958.72 510.4 958.72 518.08z"  /></svg>