<svg width="22" height="22" viewBox="0 0 22 22" fill="none" xmlns="http://www.w3.org/2000/svg" stroke='currentColor'>
<path d="M4.91187 13.7703C4.9115 14.2065 4.78181 14.6328 4.5392 14.9954C4.29658 15.3579 3.95193 15.6403 3.54881 15.807C3.1457 15.9737 2.70222 16.0171 2.27443 15.9318C1.84665 15.8464 1.45376 15.6362 1.14544 15.3276C0.837124 15.019 0.627215 14.626 0.54225 14.1981C0.457286 13.7702 0.50108 13.3268 0.668097 12.9238C0.835114 12.5209 1.11786 12.1764 1.48058 11.9341C1.8433 11.6918 2.26972 11.5625 2.70594 11.5625H4.91187V13.7703ZM6.02375 13.7703C6.02375 13.1853 6.25616 12.6242 6.66985 12.2105C7.08355 11.7968 7.64464 11.5644 8.22969 11.5644C8.81474 11.5644 9.37583 11.7968 9.78952 12.2105C10.2032 12.6242 10.4356 13.1853 10.4356 13.7703V19.2941C10.4356 19.8791 10.2032 20.4402 9.78952 20.8539C9.37583 21.2676 8.81474 21.5 8.22969 21.5C7.64464 21.5 7.08355 21.2676 6.66985 20.8539C6.25616 20.4402 6.02375 19.8791 6.02375 19.2941V13.7703ZM8.22969 4.91187C7.79347 4.9115 7.36716 4.78181 7.00464 4.5392C6.64213 4.29658 6.35968 3.95193 6.193 3.54881C6.02633 3.1457 5.98291 2.70222 6.06824 2.27443C6.15357 1.84665 6.36381 1.45376 6.67239 1.14544C6.98097 0.837124 7.37403 0.627215 7.80189 0.54225C8.22975 0.457286 8.6732 0.50108 9.07617 0.668097C9.47914 0.835114 9.82355 1.11786 10.0659 1.48058C10.3082 1.8433 10.4375 2.26972 10.4375 2.70594V4.91187H8.22969ZM8.22969 6.02375C8.81474 6.02375 9.37583 6.25616 9.78952 6.66985C10.2032 7.08355 10.4356 7.64464 10.4356 8.22969C10.4356 8.81474 10.2032 9.37583 9.78952 9.78952C9.37583 10.2032 8.81474 10.4356 8.22969 10.4356H2.70594C2.12089 10.4356 1.5598 10.2032 1.1461 9.78952C0.732411 9.37583 0.5 8.81474 0.5 8.22969C0.5 7.64464 0.732411 7.08355 1.1461 6.66985C1.5598 6.25616 2.12089 6.02375 2.70594 6.02375H8.22969ZM17.0881 8.22969C17.0885 7.79347 17.2182 7.36716 17.4608 7.00464C17.7034 6.64213 18.0481 6.35968 18.4512 6.193C18.8543 6.02633 19.2978 5.98291 19.7256 6.06824C20.1534 6.15357 20.5462 6.36381 20.8546 6.67239C21.1629 6.98097 21.3728 7.37403 21.4577 7.80189C21.5427 8.22975 21.4989 8.6732 21.3319 9.07617C21.1649 9.47914 20.8821 9.82355 20.5194 10.0659C20.1567 10.3082 19.7303 10.4375 19.2941 10.4375H17.0881V8.22969ZM15.9762 8.22969C15.9762 8.81474 15.7438 9.37583 15.3301 9.78952C14.9164 10.2032 14.3554 10.4356 13.7703 10.4356C13.1853 10.4356 12.6242 10.2032 12.2105 9.78952C11.7968 9.37583 11.5644 8.81474 11.5644 8.22969V2.70594C11.5644 2.12089 11.7968 1.5598 12.2105 1.1461C12.6242 0.732411 13.1853 0.5 13.7703 0.5C14.3554 0.5 14.9164 0.732411 15.3301 1.1461C15.7438 1.5598 15.9762 2.12089 15.9762 2.70594V8.22969ZM13.7703 17.0881C14.2065 17.0885 14.6328 17.2182 14.9954 17.4608C15.3579 17.7034 15.6403 18.0481 15.807 18.4512C15.9737 18.8543 16.0171 19.2978 15.9318 19.7256C15.8464 20.1534 15.6362 20.5462 15.3276 20.8546C15.019 21.1629 14.626 21.3728 14.1981 21.4577C13.7702 21.5427 13.3268 21.4989 12.9238 21.3319C12.5209 21.1649 12.1764 20.8821 11.9341 20.5194C11.6918 20.1567 11.5625 19.7303 11.5625 19.2941V17.0881H13.7703ZM13.7703 15.9762C13.1853 15.9762 12.6242 15.7438 12.2105 15.3301C11.7968 14.9164 11.5644 14.3554 11.5644 13.7703C11.5644 13.1853 11.7968 12.6242 12.2105 12.2105C12.6242 11.7968 13.1853 11.5644 13.7703 11.5644H19.2941C19.8791 11.5644 20.4402 11.7968 20.8539 12.2105C21.2676 12.6242 21.5 13.1853 21.5 13.7703C21.5 14.3554 21.2676 14.9164 20.8539 15.3301C20.4402 15.7438 19.8791 15.9762 19.2941 15.9762H13.7703Z" fill="#666666" stroke='currentColor'/>
</svg>
