<svg xmlns="http://www.w3.org/2000/svg" width="24" height="24" viewBox="0 0 24 24"><defs><style>.a{fill:#0070c4;}.b{fill:none;}</style></defs><g transform="translate(1 1)"><path class="a" d="M399.986,508.888h0a11,11,0,0,0,0,22h0a11,11,0,0,0,11-11v0A11.01,11.01,0,0,0,399.986,508.888Zm9,11a9,9,0,0,1-9,9h0a9,9,0,0,1,0-18h0a9.009,9.009,0,0,1,9,8.995Z" transform="translate(-388.984 -508.888)"/><path class="a" d="M405.466,523.9a10.217,10.217,0,0,1-2.412-.9v-.91c1.223-1.315,1.6-3.92,1.667-4.478a5.439,5.439,0,0,0-.953-4.393,4.929,4.929,0,0,0-3.817-1.476,4.876,4.876,0,0,0-3.751,1.477,5.431,5.431,0,0,0-.951,4.393c.066.556.44,3.161,1.666,4.478V523a10.234,10.234,0,0,1-2.413.9,1,1,0,0,0,.27,1.963.971.971,0,0,0,.27-.037c1.968-.552,3.951-1.279,3.873-2.509v-1.542a1.035,1.035,0,0,0-.022-.111.985.985,0,0,0-.4-.828c-.508-.36-1.07-1.913-1.256-3.461a3.651,3.651,0,0,1,.477-2.845,3.678,3.678,0,0,1,4.546,0,3.651,3.651,0,0,1,.477,2.845c-.186,1.55-.75,3.1-1.255,3.462a.985.985,0,0,0-.4.828,1.035,1.035,0,0,0-.022.111v1.542c-.078,1.23,1.905,1.957,3.873,2.509a.966.966,0,0,0,.27.037,1,1,0,0,0,.269-1.963Z" transform="translate(-388.984 -508.888)"/></g><rect class="b" width="24" height="24"/></svg>