<svg width="18" height="18" viewBox="0 0 18 20" fill="none" xmlns="http://www.w3.org/2000/svg">
  <path fill-rule="evenodd" clip-rule="evenodd" d="M7.32683 1.20282C8.04462 -0.129457 9.95538 -0.129457 10.6732 1.20282L17.0229 12.9954C17.1787 13.2848 17.2568 13.6098 17.2495 13.9385C17.2422 14.2671 17.1498 14.5883 16.9812 14.8705C16.8127 15.1527 16.5738 15.3864 16.2879 15.5487C16.002 15.711 15.6789 15.7964 15.3501 15.7964H2.64986C2.32112 15.7964 1.99801 15.711 1.71212 15.5487C1.42623 15.3864 1.18734 15.1527 1.01878 14.8705C0.850226 14.5883 0.757777 14.2671 0.75047 13.9385C0.743162 13.6098 0.821246 13.2849 0.977091 12.9954L7.32683 1.20282ZM8.57327 1.87437C8.75643 1.53468 9.24349 1.53452 9.42665 1.87421C9.42662 1.87416 9.42668 1.87427 9.42665 1.87421L15.7763 13.6666C15.816 13.7404 15.8359 13.8232 15.834 13.907C15.8322 13.9908 15.8086 14.0726 15.7657 14.1446C15.7227 14.2165 15.6618 14.2761 15.5889 14.3174C15.5161 14.3588 15.4338 14.3805 15.35 14.3806C15.3501 14.3806 15.35 14.3806 15.35 14.3806H2.65011M8.57327 1.87437L2.22372 13.6666C2.22372 13.6666 2.22372 13.6666 2.22372 13.6666C2.184 13.7404 2.16409 13.8232 2.16595 13.907C2.16782 13.9908 2.19138 14.0726 2.23435 14.1446C2.27731 14.2165 2.33821 14.2761 2.41108 14.3174C2.48392 14.3588 2.56636 14.3805 2.65011 14.3806M8.99087 4.81219C9.11618 4.81097 9.24044 4.83531 9.35603 4.88374C9.47163 4.93217 9.57613 5.00366 9.66315 5.09384C9.75018 5.18402 9.8179 5.291 9.86218 5.40824C9.90646 5.52548 9.92636 5.65052 9.92068 5.77572L9.70714 10.3206C9.68939 10.6982 9.37807 10.9952 9.00002 10.9952C8.62198 10.9953 8.31063 10.6982 8.29287 10.3206L8.079 5.77503C8.07889 5.77258 8.07878 5.77014 8.07869 5.76769C8.07418 5.64463 8.09437 5.52193 8.13807 5.40681C8.18176 5.2917 8.24808 5.1865 8.33311 5.09743C8.41813 5.00836 8.52014 4.93723 8.63311 4.88824C8.74607 4.83925 8.86774 4.81339 8.99087 4.81219Z" fill="#EC040B" />
  <path d="M8.99999 13.3734C8.83076 13.3734 8.66533 13.3232 8.52462 13.2292C8.38391 13.1351 8.27424 13.0015 8.20948 12.8452C8.14472 12.6888 8.12777 12.5168 8.16079 12.3508C8.1938 12.1848 8.27529 12.0324 8.39496 11.9127C8.51462 11.793 8.66708 11.7115 8.83306 11.6785C8.99904 11.6455 9.17108 11.6624 9.32743 11.7272C9.48378 11.792 9.61742 11.9016 9.71144 12.0423C9.80546 12.1831 9.85564 12.3485 9.85564 12.5177C9.85564 12.7447 9.76549 12.9623 9.60503 13.1228C9.44456 13.2832 9.22692 13.3734 8.99999 13.3734Z" fill="#EC040B" />
</svg>