<svg width="10" height="10" viewBox="0 0 10 10" fill="none" xmlns="http://www.w3.org/2000/svg">
<path fill-rule="evenodd" clip-rule="evenodd" d="M0.53217 0.53217C0.825063 0.239277 1.29994 0.239277 1.59283 0.53217L5 3.93934L8.40717 0.53217C8.70006 0.239277 9.17494 0.239277 9.46783 0.53217C9.76072 0.825063 9.76072 1.29994 9.46783 1.59283L6.06066 5L9.46783 8.40717C9.76072 8.70006 9.76072 9.17494 9.46783 9.46783C9.17494 9.76072 8.70006 9.76072 8.40717 9.46783L5 6.06066L1.59283 9.46783C1.29994 9.76072 0.825063 9.76072 0.53217 9.46783C0.239277 9.17494 0.239277 8.70006 0.53217 8.40717L3.93934 5L0.53217 1.59283C0.239277 1.29994 0.239277 0.825063 0.53217 0.53217Z" fill="#333333"/>
</svg>
